<svg width="190" height="51" viewBox="0 0 190 51" fill="none" xmlns="http://www.w3.org/2000/svg">
<path d="M24.966 32.784H16.058L14.63 37H8.544L17.18 13.132H23.912L32.548 37H26.394L24.966 32.784ZM23.47 28.296L20.512 19.558L17.588 28.296H23.47ZM38.0664 16.056C37.0464 16.056 36.2077 15.7613 35.5504 15.172C34.9157 14.56 34.5984 13.812 34.5984 12.928C34.5984 12.0213 34.9157 11.2733 35.5504 10.684C36.2077 10.072 37.0464 9.766 38.0664 9.766C39.0637 9.766 39.8797 10.072 40.5144 10.684C41.1717 11.2733 41.5004 12.0213 41.5004 12.928C41.5004 13.812 41.1717 14.56 40.5144 15.172C39.8797 15.7613 39.0637 16.056 38.0664 16.056ZM40.9904 39.448C40.9904 41.7827 40.401 43.46 39.2224 44.48C38.0437 45.5227 36.4004 46.044 34.2924 46.044H32.0144V41.114H33.4084C34.043 41.114 34.4964 40.9893 34.7684 40.74C35.0404 40.4907 35.1764 40.0827 35.1764 39.516V18.028H40.9904V39.448ZM44.0145 27.48C44.0145 25.5307 44.3772 23.8193 45.1025 22.346C45.8505 20.8727 46.8592 19.7393 48.1285 18.946C49.3978 18.1527 50.8145 17.756 52.3785 17.756C53.7158 17.756 54.8832 18.028 55.8805 18.572C56.9005 19.116 57.6825 19.83 58.2265 20.714V18.028H64.0405V37H58.2265V34.314C57.6598 35.198 56.8665 35.912 55.8465 36.456C54.8492 37 53.6818 37.272 52.3445 37.272C50.8032 37.272 49.3978 36.8753 48.1285 36.082C46.8592 35.266 45.8505 34.1213 45.1025 32.648C44.3772 31.152 44.0145 29.4293 44.0145 27.48ZM58.2265 27.514C58.2265 26.0633 57.8185 24.9187 57.0025 24.08C56.2092 23.2413 55.2345 22.822 54.0785 22.822C52.9225 22.822 51.9365 23.2413 51.1205 24.08C50.3272 24.896 49.9305 26.0293 49.9305 27.48C49.9305 28.9307 50.3272 30.0867 51.1205 30.948C51.9365 31.7867 52.9225 32.206 54.0785 32.206C55.2345 32.206 56.2092 31.7867 57.0025 30.948C57.8185 30.1093 58.2265 28.9647 58.2265 27.514ZM74.0607 21.19C74.7407 20.1473 75.5907 19.3313 76.6107 18.742C77.6307 18.13 78.764 17.824 80.0107 17.824V23.978H78.4127C76.962 23.978 75.874 24.2953 75.1487 24.93C74.4233 25.542 74.0607 26.63 74.0607 28.194V37H68.2467V18.028H74.0607V21.19ZM85.7136 16.056C84.6936 16.056 83.855 15.7613 83.1976 15.172C82.563 14.56 82.2456 13.812 82.2456 12.928C82.2456 12.0213 82.563 11.2733 83.1976 10.684C83.855 10.072 84.6936 9.766 85.7136 9.766C86.711 9.766 87.527 10.072 88.1616 10.684C88.819 11.2733 89.1476 12.0213 89.1476 12.928C89.1476 13.812 88.819 14.56 88.1616 15.172C87.527 15.7613 86.711 16.056 85.7136 16.056ZM88.6036 18.028V37H82.7896V18.028H88.6036ZM104.377 17.824C106.598 17.824 108.366 18.5493 109.681 20C111.018 21.428 111.687 23.4 111.687 25.916V37H105.907V26.698C105.907 25.4287 105.578 24.4427 104.921 23.74C104.264 23.0373 103.38 22.686 102.269 22.686C101.158 22.686 100.274 23.0373 99.617 23.74C98.9597 24.4427 98.631 25.4287 98.631 26.698V37H92.817V18.028H98.631V20.544C99.2203 19.7053 100.014 19.048 101.011 18.572C102.008 18.0733 103.13 17.824 104.377 17.824Z" fill="#00419E"/>
<path d="M130.585 32.784H121.677L120.249 37H114.163L122.799 13.132H129.531L138.167 37H132.013L130.585 32.784ZM129.089 28.296L126.131 19.558L123.207 28.296H129.089ZM152.39 37L146.61 29.044V37H140.796V11.84H146.61V25.746L152.356 18.028H159.53L151.642 27.548L159.598 37H152.39ZM180.547 18.028V37H174.733V34.416C174.144 35.2547 173.339 35.9347 172.319 36.456C171.322 36.9547 170.211 37.204 168.987 37.204C167.536 37.204 166.256 36.8867 165.145 36.252C164.034 35.5947 163.173 34.654 162.561 33.43C161.949 32.206 161.643 30.7667 161.643 29.112V18.028H167.423V28.33C167.423 29.5993 167.752 30.5853 168.409 31.288C169.066 31.9907 169.95 32.342 171.061 32.342C172.194 32.342 173.09 31.9907 173.747 31.288C174.404 30.5853 174.733 29.5993 174.733 28.33V18.028H180.547Z" fill="#00E2E1"/>
<line x1="1" y1="42" x2="25" y2="42" stroke="#00419E" stroke-width="2" stroke-linecap="round"/>
<line x1="47" y1="42" x2="71" y2="42" stroke="#00419E" stroke-width="2" stroke-linecap="round"/>
<line x1="79" y1="42" x2="147" y2="42" stroke="#00E2E1" stroke-width="2" stroke-linecap="round"/>
<line x1="155" y1="42" x2="189" y2="42" stroke="#00E2E1" stroke-width="2" stroke-linecap="round"/>
</svg>
